<svg width="32" height="32" viewBox="0 0 32 32" fill="none" xmlns="http://www.w3.org/2000/svg">
<rect width="32" height="32" rx="6" fill="black"/>
<path d="M26.4333 4L24.8802 6.57173L24.5238 6.45617C23.1502 6.01028 20.9045 6.09376 19.5851 6.46174L19.2358 6.55927L17.7846 4.09879C16.0829 7.60903 16.152 10.0575 17.0362 11.6295C17.9829 13.3127 19.9396 14.1177 22.0516 14.0915C24.5181 14.0608 26.5535 13.0948 27.4677 11.3446C28.3238 9.70584 28.2613 7.2666 26.4333 4.00005L26.4333 4ZM19.3732 9.09836C20.3068 9.10343 20.8589 9.87579 20.9652 10.9557C19.0874 11.8635 18.2346 11.1279 17.8698 9.61024C18.4457 9.25224 18.9488 9.09608 19.3732 9.09831L19.3732 9.09836ZM24.9019 9.09836C25.3262 9.09608 25.8293 9.25224 26.4052 9.61029C26.0404 11.1279 25.1876 11.8635 23.3098 10.9557C23.4162 9.87579 23.9683 9.10338 24.9018 9.09836H24.9019ZM10.0478 11.6813C9.98576 11.6808 9.92403 11.6812 9.8626 11.6823C8.33571 11.7094 7.02175 12.219 6.02992 13.0292C3.83161 14.825 3.132 18.136 5.38102 21.4529C6.40786 23.176 7.62932 24.2021 8.96342 24.7063C10.6257 25.3346 12.3362 25.1535 14.0205 24.9148C15.7047 24.6761 17.3528 24.376 18.9235 24.4881C20.4942 24.6002 22.0653 25.0041 23.5032 26.5746C24.4835 27.6453 25.8757 26.4921 24.7085 25.3502C22.9362 23.6164 21.0385 22.9466 19.1739 22.8138C17.3092 22.681 15.5205 23.052 13.9009 23.2816C12.2813 23.5112 10.8511 23.6137 9.62219 23.1493C8.89404 22.8741 8.18978 22.399 7.51972 21.5708H25.3183C26.0102 18.9202 26.0706 16.1794 25.4131 14.3697C24.413 14.8 23.267 15.0235 22.0633 15.0386H22.0632C20.5528 15.0573 19.0546 14.6876 17.868 13.8818C17.6237 14.0405 17.3826 14.2041 17.1448 14.3726L16.8547 14.5783L16.5769 14.3562C14.2174 12.4706 11.9708 11.6961 10.0478 11.6813L10.0478 11.6813Z" fill="#592CE8"/>
</svg>
