<svg width="32" height="32" viewBox="0 0 32 32" fill="none" xmlns="http://www.w3.org/2000/svg">
<rect width="32" height="32" rx="6" fill="black"/>
<path d="M16 11.2903L14.2588 11.4006C13.1329 10.1503 9.97785 7 6.83585 7C6.83585 7 4.2568 10.6284 6.78348 15.4703C6.06344 16.4877 5.61833 17.0148 5.52669 18.2284L3 18.5839L3.27492 19.7852L5.57905 19.4665L5.76234 20.3368L3.70695 21.489L4.32226 22.58L6.22054 21.489C7.72608 24.48 11.5358 26 16 26C20.4643 26 24.2739 24.48 25.7795 21.489L27.6777 22.58L28.2931 21.489L26.2377 20.3368L26.4209 19.4665L28.7251 19.7852L29 18.5839L26.4733 18.2284C26.3817 17.0148 25.9366 16.4877 25.2165 15.4703C27.7432 10.6284 25.1641 7 25.1641 7C22.0222 7 18.8671 10.1503 17.7412 11.4006L16 11.2903ZM12.0725 14.9677C12.4197 14.9677 12.7527 15.0969 12.9982 15.3268C13.2437 15.5567 13.3817 15.8684 13.3817 16.1935C13.3817 16.5187 13.2437 16.8304 12.9982 17.0603C12.7527 17.2902 12.4197 17.4194 12.0725 17.4194C11.7253 17.4194 11.3923 17.2902 11.1468 17.0603C10.9013 16.8304 10.7633 16.5187 10.7633 16.1935C10.7633 15.8684 10.9013 15.5567 11.1468 15.3268C11.3923 15.0969 11.7253 14.9677 12.0725 14.9677ZM19.9275 14.9677C20.2747 14.9677 20.6077 15.0969 20.8532 15.3268C21.0987 15.5567 21.2367 15.8684 21.2367 16.1935C21.2367 16.5187 21.0987 16.8304 20.8532 17.0603C20.6077 17.2902 20.2747 17.4194 19.9275 17.4194C19.5803 17.4194 19.2473 17.2902 19.0018 17.0603C18.7563 16.8304 18.6183 16.5187 18.6183 16.1935C18.6183 15.8684 18.7563 15.5567 19.0018 15.3268C19.2473 15.0969 19.5803 14.9677 19.9275 14.9677ZM14.6908 18.6452H17.3092L16.3928 20.349C16.6546 21.1335 17.3877 21.7097 18.291 21.7097C18.8119 21.7097 19.3113 21.516 19.6796 21.1711C20.0479 20.8263 20.2548 20.3586 20.2548 19.871H20.9094C20.9094 20.5212 20.6335 21.1448 20.1425 21.6045C19.6514 22.0643 18.9855 22.3226 18.291 22.3226C17.3092 22.3226 16.4582 21.82 16 21.0968C15.5418 21.82 14.6908 22.3226 13.709 22.3226C13.0145 22.3226 12.3486 22.0643 11.8575 21.6045C11.3665 21.1448 11.0906 20.5212 11.0906 19.871H11.7452C11.7452 20.3586 11.9521 20.8263 12.3204 21.1711C12.6887 21.516 13.1881 21.7097 13.709 21.7097C14.6123 21.7097 15.3454 21.1335 15.6073 20.349L14.6908 18.6452Z" fill="#592CE8"/>
</svg>
